# MagicaVoxel @ Ephtracy

# group
g Kone

# material
mtllib Kone.mtl
usemtl palette

# normals
vn -1 0 0
vn 1 0 0
vn 0 0 1
vn 0 0 -1
vn 0 -1 0
vn 0 1 0

# texcoords
vt 0.115234 0.5
vt 0.255859 0.5
vt 0.748047 0.5
vt 0.806641 0.5
vt 0.904297 0.5
vt 0.994141 0.5

# verts
v -5 0 2.5
v -5 0 -3.5
v -5 14 2.5
v -5 14 -3.5
v 0 1 2.5
v 0 1 1.5
v 0 2 2.5
v 0 2 1.5
v -3 1 2.5
v -3 1 1.5
v -3 2 2.5
v -3 2 1.5
v 5 0 2.5
v 5 0 -3.5
v 5 14 2.5
v 5 14 -3.5
v -5 0 2.5
v -5 14 2.5
v -4 1 2.5
v -4 13 2.5
v -3 1 2.5
v -3 2 2.5
v 0 1 2.5
v 0 2 2.5
v 1 1 2.5
v 1 13 2.5
v 2 3 2.5
v 2 4 2.5
v 2 5 2.5
v 2 6 2.5
v 2 7 2.5
v 2 8 2.5
v 2 9 2.5
v 2 10 2.5
v 2 11 2.5
v 2 12 2.5
v 4 3 2.5
v 4 4 2.5
v 4 5 2.5
v 4 6 2.5
v 4 7 2.5
v 4 8 2.5
v 4 9 2.5
v 4 10 2.5
v 4 11 2.5
v 4 12 2.5
v 5 0 2.5
v 5 14 2.5
v -3 1 1.5
v -3 2 1.5
v 0 1 1.5
v 0 2 1.5
v -5 0 -3.5
v -5 14 -3.5
v 5 0 -3.5
v 5 14 -3.5
v -5 0 2.5
v 5 0 2.5
v -5 0 -3.5
v 5 0 -3.5
v -3 2 2.5
v 0 2 2.5
v -3 2 1.5
v 0 2 1.5
v -3 1 2.5
v 0 1 2.5
v -3 1 1.5
v 0 1 1.5
v -5 14 2.5
v 5 14 2.5
v -5 14 -3.5
v 5 14 -3.5

# faces
f 3/2/1 2/2/1 1/2/1
f 4/2/1 2/2/1 3/2/1
f 7/1/1 6/1/1 5/1/1
f 8/1/1 6/1/1 7/1/1
f 9/1/2 10/1/2 11/1/2
f 11/1/2 10/1/2 12/1/2
f 13/2/2 14/2/2 15/2/2
f 15/2/2 14/2/2 16/2/2
f 19/2/3 18/2/3 17/2/3
f 20/2/3 18/2/3 19/2/3
f 21/2/3 19/2/3 17/2/3
f 21/1/3 20/1/3 19/1/3
f 22/1/3 20/1/3 21/1/3
f 23/2/3 21/2/3 17/2/3
f 24/1/3 20/1/3 22/1/3
f 25/2/3 23/2/3 17/2/3
f 25/1/3 24/1/3 23/1/3
f 26/2/3 18/2/3 20/2/3
f 26/1/3 24/1/3 25/1/3
f 26/1/3 20/1/3 24/1/3
f 27/2/3 26/2/3 25/2/3
f 28/2/3 26/2/3 27/2/3
f 29/2/3 26/2/3 28/2/3
f 30/2/3 26/2/3 29/2/3
f 31/2/3 26/2/3 30/2/3
f 32/2/3 26/2/3 31/2/3
f 33/2/3 26/2/3 32/2/3
f 34/2/3 26/2/3 33/2/3
f 35/2/3 26/2/3 34/2/3
f 36/2/3 26/2/3 35/2/3
f 37/2/3 27/2/3 25/2/3
f 37/5/3 28/5/3 27/5/3
f 38/2/3 29/2/3 28/2/3
f 38/5/3 28/5/3 37/5/3
f 39/5/3 30/5/3 29/5/3
f 39/2/3 29/2/3 38/2/3
f 40/2/3 31/2/3 30/2/3
f 40/5/3 30/5/3 39/5/3
f 41/4/3 32/4/3 31/4/3
f 41/2/3 31/2/3 40/2/3
f 42/2/3 33/2/3 32/2/3
f 42/4/3 32/4/3 41/4/3
f 43/3/3 34/3/3 33/3/3
f 43/2/3 33/2/3 42/2/3
f 44/2/3 35/2/3 34/2/3
f 44/3/3 34/3/3 43/3/3
f 45/3/3 36/3/3 35/3/3
f 45/2/3 35/2/3 44/2/3
f 46/2/3 26/2/3 36/2/3
f 46/3/3 36/3/3 45/3/3
f 47/2/3 25/2/3 17/2/3
f 47/2/3 45/2/3 44/2/3
f 47/2/3 46/2/3 45/2/3
f 47/2/3 43/2/3 42/2/3
f 47/2/3 42/2/3 41/2/3
f 47/2/3 41/2/3 40/2/3
f 47/2/3 40/2/3 39/2/3
f 47/2/3 39/2/3 38/2/3
f 47/2/3 38/2/3 37/2/3
f 47/2/3 37/2/3 25/2/3
f 47/2/3 44/2/3 43/2/3
f 48/2/3 26/2/3 46/2/3
f 48/2/3 46/2/3 47/2/3
f 48/2/3 18/2/3 26/2/3
f 51/6/3 50/6/3 49/6/3
f 52/6/3 50/6/3 51/6/3
f 53/2/4 54/2/4 55/2/4
f 55/2/4 54/2/4 56/2/4
f 59/2/5 58/2/5 57/2/5
f 60/2/5 58/2/5 59/2/5
f 63/1/5 62/1/5 61/1/5
f 64/1/5 62/1/5 63/1/5
f 65/2/6 66/2/6 67/2/6
f 67/2/6 66/2/6 68/2/6
f 69/2/6 70/2/6 71/2/6
f 71/2/6 70/2/6 72/2/6
