# MagicaVoxel @ Ephtracy

# group
g turbo_mouse

# material
mtllib turbo_mouse.mtl
usemtl palette

# normals
vn -1 0 0
vn 1 0 0
vn 0 0 1
vn 0 0 -1
vn 0 -1 0
vn 0 1 0

# texcoords
vt 0.337891 0.5
vt 0.369141 0.5
vt 0.462891 0.5
vt 0.494141 0.5
vt 0.982422 0.5
vt 0.994141 0.5

# verts
v -4 2 1
v -4 2 -1
v -4 3 1
v -4 3 -1
v -4 4 1
v -4 4 -1
v -3 0 3
v -3 0 2
v -3 0 -2
v -3 0 -3
v -3 2 2
v -3 2 1
v -3 2 -1
v -3 2 -2
v -3 3 3
v -3 3 2
v -3 3 1
v -3 3 -1
v -3 3 -2
v -3 3 -3
v -3 4 2
v -3 4 1
v -3 4 -1
v -3 4 -2
v -3 5 1
v -3 5 -1
v 0 0 3
v 0 0 2
v 0 1 2
v 0 1 1
v 0 2 2
v 0 2 1
v 0 3 3
v 0 3 2
v 0 4 2
v 0 4 1
v 0 5 2
v 0 5 1
v 1 0 -2
v 1 0 -3
v 1 2 -2
v 1 3 -2
v 1 3 -3
v -2 1 3
v -2 1 2
v -2 1 -2
v -2 1 -3
v -2 2 2
v -2 2 -2
v -2 3 3
v -2 3 2
v -2 3 -2
v -2 3 -3
v -1 0 3
v -1 0 2
v -1 0 -2
v -1 0 -3
v -1 1 3
v -1 1 2
v -1 1 -2
v -1 1 -3
v 1 1 3
v 1 1 2
v 1 2 2
v 1 3 3
v 1 3 2
v 2 0 3
v 2 0 2
v 2 1 3
v 2 1 2
v 2 1 1
v 2 1 -2
v 2 1 -3
v 2 2 2
v 2 2 1
v 2 2 -1
v 2 2 -2
v 2 3 -2
v 2 3 -3
v 2 4 2
v 2 4 1
v 2 4 -1
v 2 4 -2
v 2 5 2
v 2 5 1
v 2 5 -1
v 3 0 -2
v 3 0 -3
v 3 1 -2
v 3 1 -3
v 3 2 2
v 3 2 1
v 3 2 -1
v 3 3 2
v 3 3 1
v 3 4 2
v 3 4 1
v 3 4 -1
v -3 0 3
v -3 3 3
v -2 1 3
v -2 3 3
v -1 0 3
v -1 1 3
v 0 0 3
v 0 3 3
v 1 1 3
v 1 3 3
v 2 0 3
v 2 1 3
v -3 3 2
v -3 4 2
v -2 2 2
v -2 3 2
v -1 2 2
v -1 3 2
v -1 4 2
v 0 2 2
v 0 3 2
v 0 4 2
v 0 5 2
v 1 1 2
v 1 2 2
v 1 3 2
v 1 4 2
v 1 5 2
v 2 1 2
v 2 2 2
v 2 3 2
v 2 4 2
v 2 5 2
v 3 2 2
v 3 3 2
v 3 4 2
v -4 2 1
v -4 3 1
v -4 4 1
v -3 2 1
v -3 3 1
v -3 4 1
v -3 5 1
v -1 4 1
v 0 4 1
v 0 5 1
v -3 0 -2
v -3 2 -2
v -2 1 -2
v -2 2 -2
v -1 0 -2
v -1 1 -2
v 1 0 -2
v 1 2 -2
v 2 1 -2
v 2 2 -2
v 3 0 -2
v 3 1 -2
v -3 0 2
v -3 2 2
v -2 1 2
v -2 2 2
v -1 0 2
v -1 1 2
v 0 0 2
v 0 1 2
v 1 1 2
v 2 0 2
v 2 1 2
v 0 1 1
v 0 2 1
v 1 1 1
v 1 2 1
v 2 1 1
v 2 2 1
v -4 2 -1
v -4 3 -1
v -4 4 -1
v -3 2 -1
v -3 3 -1
v -3 4 -1
v -3 5 -1
v 2 2 -1
v 2 4 -1
v 2 5 -1
v 3 2 -1
v 3 4 -1
v -3 3 -2
v -3 4 -2
v -2 2 -2
v -2 3 -2
v -1 2 -2
v -1 3 -2
v 1 2 -2
v 1 3 -2
v 2 3 -2
v 2 4 -2
v -3 0 -3
v -3 3 -3
v -2 1 -3
v -2 3 -3
v -1 0 -3
v -1 1 -3
v 1 0 -3
v 1 3 -3
v 2 1 -3
v 2 3 -3
v 3 0 -3
v 3 1 -3
v -3 0 3
v -1 0 3
v 0 0 3
v 2 0 3
v -3 0 2
v -1 0 2
v 0 0 2
v 2 0 2
v -3 0 -2
v -1 0 -2
v 1 0 -2
v 3 0 -2
v -3 0 -3
v -1 0 -3
v 1 0 -3
v 3 0 -3
v 0 1 2
v 1 1 2
v 2 1 2
v 0 1 1
v 1 1 1
v 2 1 1
v -3 2 2
v -2 2 2
v -1 2 2
v 0 2 2
v 2 2 2
v 3 2 2
v -4 2 1
v -3 2 1
v -1 2 1
v 0 2 1
v 1 2 1
v 2 2 1
v 3 2 1
v -4 2 -1
v -3 2 -1
v -1 2 -1
v 0 2 -1
v 2 2 -1
v 3 2 -1
v -3 2 -2
v -2 2 -2
v -1 2 -2
v 1 2 -2
v 2 2 -2
v -2 1 3
v -1 1 3
v 1 1 3
v 2 1 3
v -2 1 2
v -1 1 2
v 1 1 2
v 2 1 2
v -2 1 -2
v -1 1 -2
v 2 1 -2
v 3 1 -2
v -2 1 -3
v -1 1 -3
v 2 1 -3
v 3 1 -3
v -3 3 3
v -2 3 3
v 0 3 3
v 1 3 3
v -3 3 2
v -2 3 2
v 0 3 2
v 1 3 2
v -3 3 -2
v -2 3 -2
v 1 3 -2
v 2 3 -2
v -3 3 -3
v -2 3 -3
v 1 3 -3
v 2 3 -3
v -3 4 2
v -1 4 2
v 0 4 2
v 2 4 2
v 3 4 2
v -4 4 1
v -3 4 1
v -1 4 1
v 0 4 1
v 2 4 1
v 3 4 1
v -4 4 -1
v -3 4 -1
v 2 4 -1
v 3 4 -1
v -3 4 -2
v 2 4 -2
v 0 5 2
v 1 5 2
v 2 5 2
v -3 5 1
v 0 5 1
v 1 5 1
v 2 5 1
v -3 5 -1
v 2 5 -1

# faces
f 3/4/1 2/4/1 1/4/1
f 4/4/1 2/4/1 3/4/1
f 5/5/1 4/5/1 3/5/1
f 6/5/1 4/5/1 5/5/1
f 11/3/1 8/3/1 7/3/1
f 14/3/1 10/3/1 9/3/1
f 15/3/1 11/3/1 7/3/1
f 16/4/1 12/4/1 11/4/1
f 16/3/1 11/3/1 15/3/1
f 17/4/1 12/4/1 16/4/1
f 18/4/1 14/4/1 13/4/1
f 19/3/1 10/3/1 14/3/1
f 19/4/1 14/4/1 18/4/1
f 20/3/1 10/3/1 19/3/1
f 21/5/1 17/5/1 16/5/1
f 22/5/1 17/5/1 21/5/1
f 23/5/1 19/5/1 18/5/1
f 24/5/1 19/5/1 23/5/1
f 25/5/1 23/5/1 22/5/1
f 26/5/1 23/5/1 25/5/1
f 29/3/1 28/3/1 27/3/1
f 31/3/1 29/3/1 27/3/1
f 31/1/1 30/1/1 29/1/1
f 32/1/1 30/1/1 31/1/1
f 33/3/1 31/3/1 27/3/1
f 34/3/1 31/3/1 33/3/1
f 37/2/1 36/2/1 35/2/1
f 38/2/1 36/2/1 37/2/1
f 41/3/1 40/3/1 39/3/1
f 42/3/1 40/3/1 41/3/1
f 43/3/1 40/3/1 42/3/1
f 44/3/2 45/3/2 48/3/2
f 46/3/2 47/3/2 49/3/2
f 44/3/2 48/3/2 50/3/2
f 50/3/2 48/3/2 51/3/2
f 49/3/2 47/3/2 52/3/2
f 52/3/2 47/3/2 53/3/2
f 54/3/2 55/3/2 58/3/2
f 58/3/2 55/3/2 59/3/2
f 56/3/2 57/3/2 60/3/2
f 60/3/2 57/3/2 61/3/2
f 62/3/2 63/3/2 64/3/2
f 62/3/2 64/3/2 65/3/2
f 65/3/2 64/3/2 66/3/2
f 67/3/2 68/3/2 69/3/2
f 69/3/2 68/3/2 70/3/2
f 70/2/2 71/2/2 74/2/2
f 74/2/2 71/2/2 75/2/2
f 72/3/2 73/3/2 77/3/2
f 76/5/2 77/5/2 78/5/2
f 77/3/2 73/3/2 78/3/2
f 78/3/2 73/3/2 79/3/2
f 76/5/2 78/5/2 82/5/2
f 82/5/2 78/5/2 83/5/2
f 80/1/2 81/1/2 84/1/2
f 81/5/2 82/5/2 85/5/2
f 84/1/2 81/1/2 85/1/2
f 85/5/2 82/5/2 86/5/2
f 87/3/2 88/3/2 89/3/2
f 89/3/2 88/3/2 90/3/2
f 91/1/2 92/1/2 94/1/2
f 92/5/2 93/5/2 95/5/2
f 94/1/2 92/1/2 95/1/2
f 94/2/2 95/2/2 96/2/2
f 95/5/2 93/5/2 97/5/2
f 96/2/2 95/2/2 97/2/2
f 97/5/2 93/5/2 98/5/2
f 101/3/3 100/3/3 99/3/3
f 102/3/3 100/3/3 101/3/3
f 103/3/3 101/3/3 99/3/3
f 104/3/3 101/3/3 103/3/3
f 107/3/3 106/3/3 105/3/3
f 108/3/3 106/3/3 107/3/3
f 109/3/3 107/3/3 105/3/3
f 110/3/3 107/3/3 109/3/3
f 114/5/3 112/5/3 111/5/3
f 115/4/3 114/4/3 113/4/3
f 116/5/3 112/5/3 114/5/3
f 116/4/3 114/4/3 115/4/3
f 117/5/3 112/5/3 116/5/3
f 118/2/3 116/2/3 115/2/3
f 119/1/3 117/1/3 116/1/3
f 119/2/3 116/2/3 118/2/3
f 120/1/3 117/1/3 119/1/3
f 124/5/3 120/5/3 119/5/3
f 125/2/3 121/2/3 120/2/3
f 125/5/3 120/5/3 124/5/3
f 126/2/3 121/2/3 125/2/3
f 127/2/3 123/2/3 122/2/3
f 128/5/3 124/5/3 123/5/3
f 128/2/3 123/2/3 127/2/3
f 129/1/3 125/1/3 124/1/3
f 129/5/3 124/5/3 128/5/3
f 129/1/3 126/1/3 125/1/3
f 130/1/3 126/1/3 129/1/3
f 131/1/3 126/1/3 130/1/3
f 132/1/3 129/1/3 128/1/3
f 133/2/3 130/2/3 129/2/3
f 133/1/3 129/1/3 132/1/3
f 134/2/3 130/2/3 133/2/3
f 138/4/3 136/4/3 135/4/3
f 139/5/3 137/5/3 136/5/3
f 139/4/3 136/4/3 138/4/3
f 140/5/3 137/5/3 139/5/3
f 142/5/3 141/5/3 140/5/3
f 143/5/3 141/5/3 142/5/3
f 144/5/3 141/5/3 143/5/3
f 147/3/3 146/3/3 145/3/3
f 148/3/3 146/3/3 147/3/3
f 149/3/3 147/3/3 145/3/3
f 150/3/3 147/3/3 149/3/3
f 153/3/3 152/3/3 151/3/3
f 154/3/3 152/3/3 153/3/3
f 155/3/3 153/3/3 151/3/3
f 156/3/3 153/3/3 155/3/3
f 157/3/4 158/3/4 159/3/4
f 159/3/4 158/3/4 160/3/4
f 157/3/4 159/3/4 161/3/4
f 161/3/4 159/3/4 162/3/4
f 163/3/4 164/3/4 165/3/4
f 163/3/4 165/3/4 166/3/4
f 166/3/4 165/3/4 167/3/4
f 168/1/4 169/1/4 170/1/4
f 170/1/4 169/1/4 171/1/4
f 170/2/4 171/2/4 172/2/4
f 172/2/4 171/2/4 173/2/4
f 174/4/4 175/4/4 177/4/4
f 175/5/4 176/5/4 178/5/4
f 177/4/4 175/4/4 178/4/4
f 178/5/4 176/5/4 179/5/4
f 179/5/4 180/5/4 182/5/4
f 182/5/4 180/5/4 183/5/4
f 181/5/4 182/5/4 184/5/4
f 184/5/4 182/5/4 185/5/4
f 186/5/4 187/5/4 189/5/4
f 188/4/4 189/4/4 190/4/4
f 189/5/4 187/5/4 191/5/4
f 190/4/4 189/4/4 191/4/4
f 190/5/4 191/5/4 192/5/4
f 191/5/4 187/5/4 193/5/4
f 192/5/4 191/5/4 193/5/4
f 193/5/4 187/5/4 194/5/4
f 194/5/4 187/5/4 195/5/4
f 196/3/4 197/3/4 198/3/4
f 198/3/4 197/3/4 199/3/4
f 196/3/4 198/3/4 200/3/4
f 200/3/4 198/3/4 201/3/4
f 202/3/4 203/3/4 204/3/4
f 204/3/4 203/3/4 205/3/4
f 202/3/4 204/3/4 206/3/4
f 206/3/4 204/3/4 207/3/4
f 212/3/5 209/3/5 208/3/5
f 213/3/5 209/3/5 212/3/5
f 214/3/5 211/3/5 210/3/5
f 215/3/5 211/3/5 214/3/5
f 220/3/5 217/3/5 216/3/5
f 221/3/5 217/3/5 220/3/5
f 222/3/5 219/3/5 218/3/5
f 223/3/5 219/3/5 222/3/5
f 227/1/5 225/1/5 224/1/5
f 228/2/5 226/2/5 225/2/5
f 228/1/5 225/1/5 227/1/5
f 229/2/5 226/2/5 228/2/5
f 237/4/5 231/4/5 230/4/5
f 237/4/5 232/4/5 231/4/5
f 238/2/5 233/2/5 232/2/5
f 238/4/5 232/4/5 237/4/5
f 239/2/5 233/2/5 238/2/5
f 241/1/5 235/1/5 234/1/5
f 242/1/5 235/1/5 241/1/5
f 243/4/5 237/4/5 236/4/5
f 244/6/5 238/6/5 237/6/5
f 244/4/5 237/4/5 243/4/5
f 245/4/5 239/4/5 238/4/5
f 245/6/5 238/6/5 244/6/5
f 246/5/5 240/5/5 239/5/5
f 246/4/5 239/4/5 245/4/5
f 246/5/5 241/5/5 240/5/5
f 246/5/5 242/5/5 241/5/5
f 247/5/5 242/5/5 246/5/5
f 248/5/5 242/5/5 247/5/5
f 249/4/5 245/4/5 244/4/5
f 250/4/5 245/4/5 249/4/5
f 251/5/5 247/5/5 246/5/5
f 251/4/5 245/4/5 250/4/5
f 251/5/5 246/5/5 245/5/5
f 252/5/5 247/5/5 251/5/5
f 253/5/5 247/5/5 252/5/5
f 254/3/6 255/3/6 258/3/6
f 258/3/6 255/3/6 259/3/6
f 256/3/6 257/3/6 260/3/6
f 260/3/6 257/3/6 261/3/6
f 262/3/6 263/3/6 266/3/6
f 266/3/6 263/3/6 267/3/6
f 264/3/6 265/3/6 268/3/6
f 268/3/6 265/3/6 269/3/6
f 270/3/6 271/3/6 274/3/6
f 274/3/6 271/3/6 275/3/6
f 272/3/6 273/3/6 276/3/6
f 276/3/6 273/3/6 277/3/6
f 278/3/6 279/3/6 282/3/6
f 282/3/6 279/3/6 283/3/6
f 280/3/6 281/3/6 284/3/6
f 284/3/6 281/3/6 285/3/6
f 286/5/6 287/5/6 292/5/6
f 287/1/6 288/1/6 293/1/6
f 292/5/6 287/5/6 293/5/6
f 293/1/6 288/1/6 294/1/6
f 289/2/6 290/2/6 295/2/6
f 295/2/6 290/2/6 296/2/6
f 291/5/6 292/5/6 297/5/6
f 297/5/6 292/5/6 298/5/6
f 295/5/6 296/5/6 299/5/6
f 299/5/6 296/5/6 300/5/6
f 298/5/6 299/5/6 301/5/6
f 301/5/6 299/5/6 302/5/6
f 303/2/6 304/2/6 307/2/6
f 304/1/6 305/1/6 308/1/6
f 307/2/6 304/2/6 308/2/6
f 308/1/6 305/1/6 309/1/6
f 306/5/6 307/5/6 310/5/6
f 307/5/6 308/5/6 310/5/6
f 308/5/6 309/5/6 310/5/6
f 310/5/6 309/5/6 311/5/6
