# MagicaVoxel @ Ephtracy

# group
g gear_box

# material
mtllib gear_box.mtl
usemtl palette

# normals
vn -1 0 0
vn 1 0 0
vn 0 0 1
vn 0 0 -1
vn 0 -1 0
vn 0 1 0

# texcoords
vt 0.306641 0.5
vt 0.310547 0.5
vt 0.337891 0.5
vt 0.994141 0.5

# verts
v -10 0 1
v -10 0 -10
v -10 9 1
v -10 9 -2
v -10 12 -2
v -10 12 -10
v -8 14 -4
v -8 14 -5
v -8 14 -6
v -8 14 -7
v -8 14 -8
v -8 14 -9
v -8 15 -4
v -8 15 -5
v -8 15 -6
v -8 15 -7
v -8 15 -8
v -8 15 -9
v -7 12 -5
v -7 12 -8
v -7 13 -4
v -7 13 -5
v -7 13 -8
v -7 13 -9
v -7 14 -3
v -7 14 -4
v -7 14 -5
v -7 14 -6
v -7 14 -7
v -7 14 -8
v -7 14 -9
v -7 14 -10
v -7 15 -3
v -7 15 -4
v -7 15 -9
v -7 15 -10
v -6 8 -3
v -6 8 -4
v -6 9 -3
v -6 9 -4
v -6 12 -4
v -6 12 -5
v -6 12 -8
v -6 12 -9
v -6 13 -4
v -6 13 -5
v -6 13 -8
v -6 13 -9
v -2 5 -3
v -2 5 -4
v -2 6 -3
v -2 6 -4
v 2 7 -3
v 2 7 -4
v 2 8 -3
v 2 8 -4
v 6 10 -3
v 6 10 -4
v 6 11 -3
v 6 11 -4
v 9 4 1
v 9 4 -4
v 9 9 1
v 9 9 -2
v 9 12 -2
v 9 12 -4
v -9 4 1
v -9 4 -4
v -9 9 1
v -9 9 -2
v -9 12 -2
v -9 12 -4
v -5 8 -3
v -5 8 -4
v -5 9 -3
v -5 9 -4
v -3 12 -4
v -3 12 -5
v -3 12 -8
v -3 12 -9
v -3 13 -4
v -3 13 -5
v -3 13 -8
v -3 13 -9
v -2 12 -5
v -2 12 -8
v -2 13 -4
v -2 13 -5
v -2 13 -8
v -2 13 -9
v -2 14 -3
v -2 14 -4
v -2 14 -5
v -2 14 -6
v -2 14 -7
v -2 14 -8
v -2 14 -9
v -2 14 -10
v -2 15 -3
v -2 15 -4
v -2 15 -9
v -2 15 -10
v -1 5 -3
v -1 5 -4
v -1 6 -3
v -1 6 -4
v -1 14 -4
v -1 14 -5
v -1 14 -6
v -1 14 -7
v -1 14 -8
v -1 14 -9
v -1 15 -4
v -1 15 -5
v -1 15 -6
v -1 15 -7
v -1 15 -8
v -1 15 -9
v 3 7 -3
v 3 7 -4
v 3 8 -3
v 3 8 -4
v 7 10 -3
v 7 10 -4
v 7 11 -3
v 7 11 -4
v 10 0 1
v 10 0 -10
v 10 9 1
v 10 9 -2
v 10 12 -2
v 10 12 -10
v -10 0 1
v -10 9 1
v -9 4 1
v -9 9 1
v 9 4 1
v 9 9 1
v 10 0 1
v 10 9 1
v -10 9 -2
v -10 12 -2
v -9 9 -2
v -9 12 -2
v 9 9 -2
v 9 12 -2
v 10 9 -2
v 10 12 -2
v -7 14 -3
v -7 15 -3
v -6 8 -3
v -6 9 -3
v -6 14 -3
v -6 15 -3
v -5 8 -3
v -5 9 -3
v -5 14 -3
v -5 15 -3
v -4 14 -3
v -4 15 -3
v -3 14 -3
v -3 15 -3
v -2 5 -3
v -2 6 -3
v -2 14 -3
v -2 15 -3
v -1 5 -3
v -1 6 -3
v 2 7 -3
v 2 8 -3
v 3 7 -3
v 3 8 -3
v 6 10 -3
v 6 11 -3
v 7 10 -3
v 7 11 -3
v -9 4 -4
v -9 12 -4
v -8 14 -4
v -8 15 -4
v -7 13 -4
v -7 14 -4
v -7 15 -4
v -6 8 -4
v -6 9 -4
v -6 12 -4
v -6 13 -4
v -6 14 -4
v -5 8 -4
v -5 9 -4
v -5 14 -4
v -4 14 -4
v -3 12 -4
v -3 13 -4
v -3 14 -4
v -2 5 -4
v -2 6 -4
v -2 13 -4
v -2 14 -4
v -2 15 -4
v -1 5 -4
v -1 6 -4
v -1 14 -4
v -1 15 -4
v 2 7 -4
v 2 8 -4
v 3 7 -4
v 3 8 -4
v 6 10 -4
v 6 11 -4
v 7 10 -4
v 7 11 -4
v 9 4 -4
v 9 12 -4
v -7 12 -5
v -7 13 -5
v -6 12 -5
v -6 13 -5
v -3 12 -5
v -3 13 -5
v -2 12 -5
v -2 13 -5
v -7 12 -8
v -7 13 -8
v -6 12 -8
v -6 13 -8
v -3 12 -8
v -3 13 -8
v -2 12 -8
v -2 13 -8
v -8 14 -9
v -8 15 -9
v -7 13 -9
v -7 14 -9
v -7 15 -9
v -6 12 -9
v -6 13 -9
v -6 14 -9
v -5 14 -9
v -4 14 -9
v -3 12 -9
v -3 13 -9
v -3 14 -9
v -2 13 -9
v -2 14 -9
v -2 15 -9
v -1 14 -9
v -1 15 -9
v -10 0 -10
v -10 12 -10
v -7 14 -10
v -7 15 -10
v -6 14 -10
v -6 15 -10
v -5 14 -10
v -5 15 -10
v -4 14 -10
v -4 15 -10
v -3 14 -10
v -3 15 -10
v -2 14 -10
v -2 15 -10
v 10 0 -10
v 10 12 -10
v -10 0 1
v 10 0 1
v -10 0 -10
v 10 0 -10
v -2 5 -3
v -1 5 -3
v -2 5 -4
v -1 5 -4
v 2 7 -3
v 3 7 -3
v 2 7 -4
v 3 7 -4
v -6 8 -3
v -5 8 -3
v -6 8 -4
v -5 8 -4
v 6 10 -3
v 7 10 -3
v 6 10 -4
v 7 10 -4
v -7 13 -4
v -6 13 -4
v -3 13 -4
v -2 13 -4
v -7 13 -5
v -6 13 -5
v -3 13 -5
v -2 13 -5
v -7 13 -8
v -6 13 -8
v -3 13 -8
v -2 13 -8
v -7 13 -9
v -6 13 -9
v -3 13 -9
v -2 13 -9
v -7 14 -3
v -6 14 -3
v -5 14 -3
v -4 14 -3
v -3 14 -3
v -2 14 -3
v -8 14 -4
v -7 14 -4
v -6 14 -4
v -5 14 -4
v -4 14 -4
v -3 14 -4
v -2 14 -4
v -1 14 -4
v -8 14 -5
v -7 14 -5
v -2 14 -5
v -1 14 -5
v -8 14 -6
v -7 14 -6
v -2 14 -6
v -1 14 -6
v -8 14 -7
v -7 14 -7
v -2 14 -7
v -1 14 -7
v -8 14 -8
v -7 14 -8
v -2 14 -8
v -1 14 -8
v -8 14 -9
v -7 14 -9
v -6 14 -9
v -5 14 -9
v -4 14 -9
v -3 14 -9
v -2 14 -9
v -1 14 -9
v -7 14 -10
v -6 14 -10
v -5 14 -10
v -4 14 -10
v -3 14 -10
v -2 14 -10
v -9 4 1
v 9 4 1
v -9 4 -4
v 9 4 -4
v -2 6 -3
v -1 6 -3
v -2 6 -4
v -1 6 -4
v 2 8 -3
v 3 8 -3
v 2 8 -4
v 3 8 -4
v -10 9 1
v -9 9 1
v 9 9 1
v 10 9 1
v -10 9 -2
v -9 9 -2
v 9 9 -2
v 10 9 -2
v -6 9 -3
v -5 9 -3
v -6 9 -4
v -5 9 -4
v 6 11 -3
v 7 11 -3
v 6 11 -4
v 7 11 -4
v -10 12 -2
v -9 12 -2
v 9 12 -2
v 10 12 -2
v -9 12 -4
v -6 12 -4
v -3 12 -4
v 9 12 -4
v -7 12 -5
v -6 12 -5
v -3 12 -5
v -2 12 -5
v -7 12 -8
v -6 12 -8
v -3 12 -8
v -2 12 -8
v -6 12 -9
v -3 12 -9
v -10 12 -10
v 10 12 -10
v -7 15 -3
v -6 15 -3
v -5 15 -3
v -4 15 -3
v -3 15 -3
v -2 15 -3
v -8 15 -4
v -7 15 -4
v -6 15 -4
v -5 15 -4
v -4 15 -4
v -3 15 -4
v -2 15 -4
v -1 15 -4
v -8 15 -5
v -7 15 -5
v -2 15 -5
v -1 15 -5
v -8 15 -6
v -7 15 -6
v -2 15 -6
v -1 15 -6
v -8 15 -7
v -7 15 -7
v -2 15 -7
v -1 15 -7
v -8 15 -8
v -7 15 -8
v -2 15 -8
v -1 15 -8
v -8 15 -9
v -7 15 -9
v -6 15 -9
v -5 15 -9
v -4 15 -9
v -3 15 -9
v -2 15 -9
v -1 15 -9
v -7 15 -10
v -6 15 -10
v -5 15 -10
v -4 15 -10
v -3 15 -10
v -2 15 -10

# faces
f 3/1/1 2/1/1 1/1/1
f 4/1/1 2/1/1 3/1/1
f 5/1/1 2/1/1 4/1/1
f 6/1/1 2/1/1 5/1/1
f 13/1/1 8/1/1 7/1/1
f 14/3/1 9/3/1 8/3/1
f 14/1/1 8/1/1 13/1/1
f 15/1/1 10/1/1 9/1/1
f 15/3/1 9/3/1 14/3/1
f 16/3/1 11/3/1 10/3/1
f 16/1/1 10/1/1 15/1/1
f 17/1/1 12/1/1 11/1/1
f 17/3/1 11/3/1 16/3/1
f 18/1/1 12/1/1 17/1/1
f 22/1/1 20/1/1 19/1/1
f 23/1/1 20/1/1 22/1/1
f 26/1/1 22/1/1 21/1/1
f 26/1/1 24/1/1 23/1/1
f 26/1/1 23/1/1 22/1/1
f 27/1/1 24/1/1 26/1/1
f 28/1/1 24/1/1 27/1/1
f 29/1/1 24/1/1 28/1/1
f 30/1/1 24/1/1 29/1/1
f 31/1/1 24/1/1 30/1/1
f 33/1/1 26/1/1 25/1/1
f 34/1/1 26/1/1 33/1/1
f 35/1/1 32/1/1 31/1/1
f 36/1/1 32/1/1 35/1/1
f 39/2/1 38/2/1 37/2/1
f 40/2/1 38/2/1 39/2/1
f 45/1/1 42/1/1 41/1/1
f 46/1/1 42/1/1 45/1/1
f 47/1/1 44/1/1 43/1/1
f 48/1/1 44/1/1 47/1/1
f 51/2/1 50/2/1 49/2/1
f 52/2/1 50/2/1 51/2/1
f 55/2/1 54/2/1 53/2/1
f 56/2/1 54/2/1 55/2/1
f 59/2/1 58/2/1 57/2/1
f 60/2/1 58/2/1 59/2/1
f 63/1/1 62/1/1 61/1/1
f 64/1/1 62/1/1 63/1/1
f 65/1/1 62/1/1 64/1/1
f 66/1/1 62/1/1 65/1/1
f 67/1/2 68/1/2 69/1/2
f 69/1/2 68/1/2 70/1/2
f 70/1/2 68/1/2 71/1/2
f 71/1/2 68/1/2 72/1/2
f 73/2/2 74/2/2 75/2/2
f 75/2/2 74/2/2 76/2/2
f 77/1/2 78/1/2 81/1/2
f 81/1/2 78/1/2 82/1/2
f 79/1/2 80/1/2 83/1/2
f 83/1/2 80/1/2 84/1/2
f 85/1/2 86/1/2 88/1/2
f 88/1/2 86/1/2 89/1/2
f 87/1/2 88/1/2 92/1/2
f 89/1/2 90/1/2 92/1/2
f 88/1/2 89/1/2 92/1/2
f 92/1/2 90/1/2 93/1/2
f 93/1/2 90/1/2 94/1/2
f 94/1/2 90/1/2 95/1/2
f 95/1/2 90/1/2 96/1/2
f 96/1/2 90/1/2 97/1/2
f 91/1/2 92/1/2 99/1/2
f 99/1/2 92/1/2 100/1/2
f 97/1/2 98/1/2 101/1/2
f 101/1/2 98/1/2 102/1/2
f 103/2/2 104/2/2 105/2/2
f 105/2/2 104/2/2 106/2/2
f 107/1/2 108/1/2 113/1/2
f 108/3/2 109/3/2 114/3/2
f 113/1/2 108/1/2 114/1/2
f 109/1/2 110/1/2 115/1/2
f 114/3/2 109/3/2 115/3/2
f 110/3/2 111/3/2 116/3/2
f 115/1/2 110/1/2 116/1/2
f 111/1/2 112/1/2 117/1/2
f 116/3/2 111/3/2 117/3/2
f 117/1/2 112/1/2 118/1/2
f 119/2/2 120/2/2 121/2/2
f 121/2/2 120/2/2 122/2/2
f 123/2/2 124/2/2 125/2/2
f 125/2/2 124/2/2 126/2/2
f 127/1/2 128/1/2 129/1/2
f 129/1/2 128/1/2 130/1/2
f 130/1/2 128/1/2 131/1/2
f 131/1/2 128/1/2 132/1/2
f 135/1/3 134/1/3 133/1/3
f 136/1/3 134/1/3 135/1/3
f 137/1/3 135/1/3 133/1/3
f 139/1/3 137/1/3 133/1/3
f 139/1/3 138/1/3 137/1/3
f 140/1/3 138/1/3 139/1/3
f 143/1/3 142/1/3 141/1/3
f 144/1/3 142/1/3 143/1/3
f 147/1/3 146/1/3 145/1/3
f 148/1/3 146/1/3 147/1/3
f 153/1/3 150/1/3 149/1/3
f 154/1/3 150/1/3 153/1/3
f 155/2/3 152/2/3 151/2/3
f 156/2/3 152/2/3 155/2/3
f 157/3/3 154/3/3 153/3/3
f 158/3/3 154/3/3 157/3/3
f 159/1/3 158/1/3 157/1/3
f 160/1/3 158/1/3 159/1/3
f 161/3/3 160/3/3 159/3/3
f 162/3/3 160/3/3 161/3/3
f 165/1/3 162/1/3 161/1/3
f 166/1/3 162/1/3 165/1/3
f 167/2/3 164/2/3 163/2/3
f 168/2/3 164/2/3 167/2/3
f 171/2/3 170/2/3 169/2/3
f 172/2/3 170/2/3 171/2/3
f 175/2/3 174/2/3 173/2/3
f 176/2/3 174/2/3 175/2/3
f 182/1/3 180/1/3 179/1/3
f 183/1/3 180/1/3 182/1/3
f 184/1/3 178/1/3 177/1/3
f 185/1/3 178/1/3 184/1/3
f 186/1/3 178/1/3 185/1/3
f 187/1/3 182/1/3 181/1/3
f 188/1/3 182/1/3 187/1/3
f 189/1/3 184/1/3 177/1/3
f 190/1/3 186/1/3 185/1/3
f 190/1/3 188/1/3 187/1/3
f 190/1/3 187/1/3 186/1/3
f 191/1/3 188/1/3 190/1/3
f 192/1/3 190/1/3 189/1/3
f 192/1/3 191/1/3 190/1/3
f 193/1/3 192/1/3 189/1/3
f 194/1/3 192/1/3 193/1/3
f 195/1/3 192/1/3 194/1/3
f 196/1/3 189/1/3 177/1/3
f 196/1/3 193/1/3 189/1/3
f 197/1/3 193/1/3 196/1/3
f 198/1/3 195/1/3 194/1/3
f 199/1/3 195/1/3 198/1/3
f 201/1/3 196/1/3 177/1/3
f 202/1/3 193/1/3 197/1/3
f 203/1/3 200/1/3 199/1/3
f 204/1/3 200/1/3 203/1/3
f 205/1/3 202/1/3 201/1/3
f 205/1/3 193/1/3 202/1/3
f 206/1/3 193/1/3 205/1/3
f 207/1/3 205/1/3 201/1/3
f 208/1/3 193/1/3 206/1/3
f 209/1/3 193/1/3 208/1/3
f 209/1/3 208/1/3 207/1/3
f 210/1/3 193/1/3 209/1/3
f 211/1/3 209/1/3 207/1/3
f 212/1/3 193/1/3 210/1/3
f 213/1/3 201/1/3 177/1/3
f 213/1/3 212/1/3 211/1/3
f 213/1/3 207/1/3 201/1/3
f 213/1/3 211/1/3 207/1/3
f 214/1/3 193/1/3 212/1/3
f 214/1/3 212/1/3 213/1/3
f 217/1/3 216/1/3 215/1/3
f 218/1/3 216/1/3 217/1/3
f 221/1/3 220/1/3 219/1/3
f 222/1/3 220/1/3 221/1/3
f 223/1/4 224/1/4 225/1/4
f 225/1/4 224/1/4 226/1/4
f 227/1/4 228/1/4 229/1/4
f 229/1/4 228/1/4 230/1/4
f 231/1/4 232/1/4 234/1/4
f 234/1/4 232/1/4 235/1/4
f 233/1/4 234/1/4 237/1/4
f 237/1/4 234/1/4 238/1/4
f 236/1/4 237/1/4 239/1/4
f 237/1/4 238/1/4 239/1/4
f 236/1/4 239/1/4 240/1/4
f 236/1/4 240/1/4 241/1/4
f 241/1/4 240/1/4 242/1/4
f 242/1/4 240/1/4 243/1/4
f 242/1/4 243/1/4 244/1/4
f 244/1/4 243/1/4 245/1/4
f 245/1/4 246/1/4 247/1/4
f 247/1/4 246/1/4 248/1/4
f 251/1/4 252/1/4 253/1/4
f 253/1/4 252/1/4 254/1/4
f 253/3/4 254/3/4 255/3/4
f 255/3/4 254/3/4 256/3/4
f 255/1/4 256/1/4 257/1/4
f 257/1/4 256/1/4 258/1/4
f 257/3/4 258/3/4 259/3/4
f 259/3/4 258/3/4 260/3/4
f 259/1/4 260/1/4 261/1/4
f 261/1/4 260/1/4 262/1/4
f 249/1/4 250/1/4 263/1/4
f 263/1/4 250/1/4 264/1/4
f 267/1/5 266/1/5 265/1/5
f 268/1/5 266/1/5 267/1/5
f 271/2/5 270/2/5 269/2/5
f 272/2/5 270/2/5 271/2/5
f 275/2/5 274/2/5 273/2/5
f 276/2/5 274/2/5 275/2/5
f 279/2/5 278/2/5 277/2/5
f 280/2/5 278/2/5 279/2/5
f 283/2/5 282/2/5 281/2/5
f 284/2/5 282/2/5 283/2/5
f 289/1/5 286/1/5 285/1/5
f 290/1/5 286/1/5 289/1/5
f 291/1/5 288/1/5 287/1/5
f 292/1/5 288/1/5 291/1/5
f 297/1/5 294/1/5 293/1/5
f 298/1/5 294/1/5 297/1/5
f 299/1/5 296/1/5 295/1/5
f 300/1/5 296/1/5 299/1/5
f 308/1/5 302/1/5 301/1/5
f 309/3/5 303/3/5 302/3/5
f 309/1/5 302/1/5 308/1/5
f 310/1/5 304/1/5 303/1/5
f 310/3/5 303/3/5 309/3/5
f 311/3/5 305/3/5 304/3/5
f 311/1/5 304/1/5 310/1/5
f 312/1/5 306/1/5 305/1/5
f 312/3/5 305/3/5 311/3/5
f 313/1/5 306/1/5 312/1/5
f 315/1/5 308/1/5 307/1/5
f 316/1/5 308/1/5 315/1/5
f 317/1/5 314/1/5 313/1/5
f 318/1/5 314/1/5 317/1/5
f 319/3/5 316/3/5 315/3/5
f 320/3/5 316/3/5 319/3/5
f 321/3/5 318/3/5 317/3/5
f 322/3/5 318/3/5 321/3/5
f 323/1/5 320/1/5 319/1/5
f 324/1/5 320/1/5 323/1/5
f 325/1/5 322/1/5 321/1/5
f 326/1/5 322/1/5 325/1/5
f 327/3/5 324/3/5 323/3/5
f 328/3/5 324/3/5 327/3/5
f 329/3/5 326/3/5 325/3/5
f 330/3/5 326/3/5 329/3/5
f 331/1/5 328/1/5 327/1/5
f 332/1/5 328/1/5 331/1/5
f 337/1/5 330/1/5 329/1/5
f 338/1/5 330/1/5 337/1/5
f 339/1/5 333/1/5 332/1/5
f 340/3/5 334/3/5 333/3/5
f 340/1/5 333/1/5 339/1/5
f 341/1/5 335/1/5 334/1/5
f 341/3/5 334/3/5 340/3/5
f 342/3/5 336/3/5 335/3/5
f 342/1/5 335/1/5 341/1/5
f 343/1/5 337/1/5 336/1/5
f 343/3/5 336/3/5 342/3/5
f 344/1/5 337/1/5 343/1/5
f 345/1/6 346/1/6 347/1/6
f 347/1/6 346/1/6 348/1/6
f 349/2/6 350/2/6 351/2/6
f 351/2/6 350/2/6 352/2/6
f 353/2/6 354/2/6 355/2/6
f 355/2/6 354/2/6 356/2/6
f 357/1/6 358/1/6 361/1/6
f 361/1/6 358/1/6 362/1/6
f 359/1/6 360/1/6 363/1/6
f 363/1/6 360/1/6 364/1/6
f 365/2/6 366/2/6 367/2/6
f 367/2/6 366/2/6 368/2/6
f 369/2/6 370/2/6 371/2/6
f 371/2/6 370/2/6 372/2/6
f 373/1/6 374/1/6 377/1/6
f 375/1/6 376/1/6 380/1/6
f 377/1/6 378/1/6 381/1/6
f 381/1/6 378/1/6 382/1/6
f 379/1/6 380/1/6 383/1/6
f 383/1/6 380/1/6 384/1/6
f 377/1/6 381/1/6 385/1/6
f 384/1/6 380/1/6 388/1/6
f 385/1/6 386/1/6 389/1/6
f 387/1/6 388/1/6 390/1/6
f 385/1/6 389/1/6 391/1/6
f 389/1/6 390/1/6 391/1/6
f 373/1/6 377/1/6 391/1/6
f 377/1/6 385/1/6 391/1/6
f 390/1/6 388/1/6 392/1/6
f 391/1/6 390/1/6 392/1/6
f 380/1/6 376/1/6 392/1/6
f 388/1/6 380/1/6 392/1/6
f 393/1/6 394/1/6 400/1/6
f 394/3/6 395/3/6 401/3/6
f 400/1/6 394/1/6 401/1/6
f 395/1/6 396/1/6 402/1/6
f 401/3/6 395/3/6 402/3/6
f 396/3/6 397/3/6 403/3/6
f 402/1/6 396/1/6 403/1/6
f 397/1/6 398/1/6 404/1/6
f 403/3/6 397/3/6 404/3/6
f 404/1/6 398/1/6 405/1/6
f 399/1/6 400/1/6 407/1/6
f 402/4/6 403/4/6 408/4/6
f 407/1/6 400/1/6 408/1/6
f 400/4/6 401/4/6 408/4/6
f 404/4/6 405/4/6 408/4/6
f 403/4/6 404/4/6 408/4/6
f 401/4/6 402/4/6 408/4/6
f 405/1/6 406/1/6 409/1/6
f 408/4/6 405/4/6 409/4/6
f 409/1/6 406/1/6 410/1/6
f 407/3/6 408/3/6 411/3/6
f 408/4/6 409/4/6 412/4/6
f 411/3/6 408/3/6 412/3/6
f 409/3/6 410/3/6 413/3/6
f 412/4/6 409/4/6 413/4/6
f 413/3/6 410/3/6 414/3/6
f 411/1/6 412/1/6 415/1/6
f 412/4/6 413/4/6 416/4/6
f 415/1/6 412/1/6 416/1/6
f 413/1/6 414/1/6 417/1/6
f 416/4/6 413/4/6 417/4/6
f 417/1/6 414/1/6 418/1/6
f 415/3/6 416/3/6 419/3/6
f 416/4/6 417/4/6 420/4/6
f 419/3/6 416/3/6 420/3/6
f 417/3/6 418/3/6 421/3/6
f 420/4/6 417/4/6 421/4/6
f 421/3/6 418/3/6 422/3/6
f 419/1/6 420/1/6 423/1/6
f 420/4/6 421/4/6 424/4/6
f 423/1/6 420/1/6 424/1/6
f 424/4/6 421/4/6 425/4/6
f 425/4/6 421/4/6 426/4/6
f 426/4/6 421/4/6 427/4/6
f 427/4/6 421/4/6 428/4/6
f 421/1/6 422/1/6 429/1/6
f 428/4/6 421/4/6 429/4/6
f 429/1/6 422/1/6 430/1/6
f 424/1/6 425/1/6 431/1/6
f 425/3/6 426/3/6 432/3/6
f 431/1/6 425/1/6 432/1/6
f 426/1/6 427/1/6 433/1/6
f 432/3/6 426/3/6 433/3/6
f 427/3/6 428/3/6 434/3/6
f 433/1/6 427/1/6 434/1/6
f 428/1/6 429/1/6 435/1/6
f 434/3/6 428/3/6 435/3/6
f 435/1/6 429/1/6 436/1/6
